<svg viewBox="0 0 42 42" xmlns="http://www.w3.org/2000/svg">
  <path d="M30.83 2.94c-3.284 0-5.837 2.028-7.468 4.305-1.827 2.55-3.625 6.825-4.305 8.518-.177.443-.091.945.22 1.306l4.48 5.2a.51.51 0 01.055.585l-3.74 6.46a1.053 1.053 0 00-.102.808l2.054 7.36c.092.325.479.453.744.246 4.374-3.426 15.567-12.823 17.404-20.679 2.29-9.797-3.465-14.11-9.341-14.11z" fill="#F44336" />
  <path d="M20.852 22.427l-4.794-5.571 3.587-7.613a1.703 1.703 0 00-.138-1.703c-1.47-2.087-4.118-4.6-8.354-4.6-5.44 0-11.642 4.312-9.352 14.113 1.769 7.566 12.374 16.852 17.07 20.567a.188.188 0 00.305-.138l.2-2.333-1.998-5.765 3.553-6.15a.699.699 0 00-.079-.807z" fill="#F44336" />
  <path d="M30.83 2.94c-2.175 0-4.025.892-5.502 2.152.266-.193 2.005-1.42 3.954-1.42 5.319 0 10.08 4.032 7.93 13.354C35.494 24.481 26.028 33.42 22.08 37.6a.47.47 0 00.692.128c4.374-3.426 15.566-12.823 17.404-20.679 2.287-9.797-3.469-14.11-9.345-14.11z" fill="#C33" />
  <path d="M25.308 11.37c-.577 0-.984-.558-.774-1.096.39-.991.896-1.95 1.503-2.803.899-1.26 2.608-1.995 3.691-1.23 1.11.78.965 2.343.187 3.097-1.673 1.618-3.776 2.032-4.607 2.032zM5.578 8.144c1.23-1.536 3.429-2.805 5.293-1.342 1.007.79.567 2.412-.335 3.094-1.313.998-2.454 1.598-3.255 3.16-.48.939-.768 1.966-.916 3.012a.43.43 0 01-.803.151c-1.385-2.457-1.779-5.837.016-8.075z" fill="#FF8A80" />
  <path d="M17.378 29.384l3.553-6.15a.703.703 0 00-.075-.81l-4.798-5.568 3.823-7.964a1.703 1.703 0 00-.138-1.703c-1.47-2.087-4.354-4.25-8.59-4.25-3.288 0-6.855 1.58-8.656 4.995 1.943-2.445 4.942-3.59 7.74-3.59 4.237 0 6.885 2.514 8.355 4.6.35.5.397 1.152.137 1.704l-3.586 7.612 4.797 5.572a.703.703 0 01.076.81l-3.554 6.146s1.94 5.184 2.658 6.792c0 0 .056 0 .098-.279 0 0 .29-2.05.132-2.54-.148-.465-1.973-5.378-1.973-5.378z" fill="#C33" />
</svg>