<svg viewBox="0 0 42 42" fill="none" xmlns="http://www.w3.org/2000/svg">
  <path d="M19.143 17.791c0-.453-.076-.696-1.415-.909-1.027-.164-13.905.466-14.68.515-1.496.099-2.077.706-2.064 1.808.01.962 1.113 1.785 1.375 2.182.263.397.243.768-.082 1.185-.25.321-1.306.761-1.306 1.972 0 1.486.971 2.234 2.077 2.333 1.74.15 9.703.289 11.75.433.988.069 1.592.509 2.58.58.452 0 1.765-1.092 1.765-1.545v-8.554z" fill="#92CBEB" />
  <path d="M40.376 20.478c0-9.6-5.815-10.073-5.815-10.073.004-.092.306-5.677-5.25-6.88-4.521-.982-7.405.836-8.85 2.47-2.706-1.414-6.594-.988-8.383 1.978-.941 1.566-.823 3.968-.203 5.684.623 1.729 1.86 2.799 3.084 4.167 3.527 3.95 2.274 5.456.45 7.904-1.129 1.513-3.623 6.041.21 10.234 2.697 2.95 8.623 1.3 8.623 1.3.436.131 4.325 3.147 8.646.285 4.613-3.054 2.812-8.783 2.812-8.783s4.676-2.32 4.676-8.286z" fill="#D5EBF5" />
  <path d="M23.025 28.458c.259-.075.272-.436.013-.521-1.149-.375-3.222-1.254-4.45-3.006-1.19-1.7-1.91-5.746.555-7.57 3.622-2.687 3.042-5.739 2.13-6.87-.952-1.182-3.498-.952-3.459 1.111.007.381.118.755.279 1.1.42.905 1.073 2.264.164 3.153-.433.423-1.066.551-1.66.436-1.405-.272-2.471-1.368-3.032-2.641-1.621-3.685-.246-5.906 1.686-7.83.102-.1-.003-.275-.14-.229-2.419.791-3.613 2.763-3.709 4.968-.068 1.62.256 3.248 1.116 4.623.663 1.06 1.779 1.972 2.52 2.976.578.781 1.742 1.746 1.559 2.819-.178 1.037-.962 1.952-1.585 2.746-1.775 2.261-2.69 5.32-1.962 8.099 1.348 5.145 5.355 5.781 6.68 5.85.105.007.141-.144.046-.18-1.352-.512-2.149-1.04-2.467-1.3-2.5-2.05-3.088-5.604-1.917-8.626.086-.223.224-.427.414-.575.82-.636 1.427.581 2.809 1.267 1.598.79 3.39.492 4.41.2zM33.977 11.688c1.001-.978.49-4.423-.974-6.028-.413-.453-1.168-.105-1.112.505.088 1.024.262 2.517-.335 4.056-.345.89-.036 1.654.535 1.916.279.128 1.07.351 1.886-.45z" fill="#92CBEB" />
  <path d="M40.11 22.477c.14-.614.22-1.188.256-1.71.016-.25-.332-.318-.407-.082-.427 1.365-1.355 3.15-3.37 4.22-.66.35-1.388.56-2.057.892-.863.43-2.031.843-2.012 1.995.03 1.585 2.54 1.713 4.436.158 1.703-1.401 2.71-3.55 3.154-5.473zM33.653 37.003c.183-.145.026-.427-.194-.351-2.05.689-4.4.495-6.29-.571-.41-.233-1.437-.982-2.51-1.064-.68-.052-1.287.476-1.24 1.155.029.46.298.88.64 1.188.918.83 2.303 1.182 3.504 1.323a8.596 8.596 0 004.498-.706 7.657 7.657 0 001.592-.974z" fill="#61BFE8" />
  <path d="M6.116 14.201c1.204-.489 2.323-1.28 2.98-2.402.656-1.118.78-2.598.111-3.71-.67-1.113-2.205-1.69-3.366-1.11-.863.433-1.1 1.257-.673 2.232.348.794.955.931.837 1.965-.151 1.332-1.798 2.474-2.58 2.802-.662.276-1.817 1.113-.377 1.01 1.014-.065 2.13-.406 3.068-.787z" fill="#92CBEB" />
  <path d="M9.654 33.128c.328.83.794 2.976-1.13 3.245-1.541.216-2.434-1.47-2.782-2.957-.466-1.988-2.185-3.022-2.973-3.763a.253.253 0 01.158-.437c1.424-.108 5.178.007 6.727 3.912z" fill="#61BFE8" />
  <path d="M23.13 5.063c-.434.351-.863.833-1.25 1.234-.139.14-.795 1.007-1.428.46-.305-.267-.01-.913.089-1.094.38-.695 1.552-1.962 3.993-2.48.807-.17 3.143-.135 3.143.098 0 .315-2.72.29-4.547 1.782z" fill="#92CBEB" />
  <path d="M11.373 19.77H1.106c.154.367.423.702.679.984h9.588a.491.491 0 100-.985zM14.247 22.677H2.176c-.329.292-.985.56-1.136 1.368h13.207c.453 0 .82-.37.82-.824 0-.452-.367-.544-.82-.544z" fill="#039BE5" />
</svg>