<svg viewBox="0 0 42 42" fill="none" xmlns="http://www.w3.org/2000/svg">
  <path d="M28.888 14.523c-4.134-5.07-5.962-9.381-7.009-11.954a.94.94 0 00-1.758 0c-1.047 2.573-2.875 6.884-7.01 11.954-2.588 3.176-5.14 7.826-5.14 12.406 0 7.816 5.64 13.109 13.03 13.109 7.388 0 13.029-5.296 13.029-13.109 0-4.76-2.553-9.23-5.142-12.406z" fill="#E5322E" />
  <path d="M24.603 26.198c2.083-3.964 1.788-7.843 3.435-7.144 2.238.955 4.716 5.86 3.787 10.307-.663 3.17-2.802 5.089-5.529 4.173-2.202-.738-3.57-3.767-1.693-7.336z" fill="#FF6050" />
</svg>