<?xml version="1.0" encoding="utf-8"?>
<svg viewBox="0 0 42 42" fill="none" xmlns="http://www.w3.org/2000/svg">
  <path d="M20.869 38.981c-9.155 0-19.032-5.742-19.032-18.342 0-12.6 9.877-18.342 19.032-18.342 5.086 0 9.778 1.673 13.256 4.725 3.773 3.347 5.775 8.072 5.775 13.617 0 5.545-2.002 10.238-5.775 13.584-3.478 3.052-8.203 4.758-13.256 4.758z" style="fill: rgb(255, 248, 47);"/>
  <path d="M36.583 9.735c1.749 2.822 2.66 6.182 2.66 9.92 0 5.545-2 10.237-5.774 13.584-3.478 3.052-8.203 4.758-13.256 4.758-5.926 0-12.154-2.412-15.81-7.527 3.531 5.794 10.17 8.511 16.466 8.511 5.053 0 9.778-1.706 13.256-4.758C37.9 30.877 39.9 26.184 39.9 20.64c0-4.18-1.139-7.895-3.317-10.904z" fill="#EB8F00"/>
  <path d="M28.255 32.973a.602.602 0 01-.286-.14c-1.398-1.208-3.146-2.068-5.089-2.504-1.94-.437-3.888-.414-5.67.078a.612.612 0 01-.765-.476.581.581 0 01.247-.587c1.942-1.338 4.357-1.795 6.693-1.266 2.337.525 4.325 1.972 5.503 4.016a.576.576 0 01-.03.636.602.602 0 01-.603.243zM14.45 18.027c-1.374 0-2.624 1.162-2.624 3.091 0 1.926 1.25 3.091 2.625 3.091 1.374 0 2.625-1.162 2.625-3.09 0-1.93-1.247-3.092-2.625-3.092z" fill="#422B0D"/>
  <path d="M14.322 19.317c-.337-.236-.846-.161-1.174.311-.328.476-.22.975.118 1.211.338.237.847.161 1.175-.311.328-.473.223-.975-.119-1.211z" fill="#896024"/>
  <path d="M27.038 18.027c-1.375 0-2.625 1.162-2.625 3.091 0 1.926 1.25 3.091 2.625 3.091 1.374 0 2.625-1.162 2.625-3.09 0-1.93-1.25-3.092-2.625-3.092z" fill="#422B0D"/>
  <path d="M26.91 19.317c-.338-.236-.847-.161-1.175.311-.328.476-.22.975.118 1.211.338.237.847.161 1.175-.311.331-.476.22-.975-.118-1.211z" fill="#896024"/>
  <path d="M34.125 7.022c-1.805-1.585-3.94-2.792-6.287-3.593l-.62.341-7.869 3.75L6.057 9.33l-.689.075c-2.172 2.842-3.53 6.566-3.53 11.235 0 1.779.203 3.416.567 4.922l19.566-10.838 16.492-1.63a16.634 16.634 0 00-4.338-6.071z" fill="#F5F5F5"/>
  <path d="M2.523 26.053l-.183-.715S12.784 17.18 23.26 14.03l1.838.278C14.56 17.654 2.632 25.974 2.523 26.053z" fill="gray"/>
  <path d="M20.422 7.009l-1.9.905 1.9-.905z" fill="url(#paint1_linear_35_2422)"/>
  <path d="M27.838 3.429c1.155.344 2.277.807 3.353 1.362 1.077.554 2.113 1.204 3.049 2.008.918.81 1.739 1.736 2.447 2.736.355.502.683 1.02.985 1.556.302.538.577 1.076.823 1.667l.204.495-.551.056c-2.996.312-5.995.613-8.994.886-1.5.144-3 .275-4.499.403-1.5.128-3.002.266-4.502.378-2.996.226-5.991.489-8.987.777l-4.492.453c-1.496.158-2.993.335-4.489.512 1.47-.331 2.956-.597 4.44-.863 1.483-.266 2.972-.502 4.465-.719 2.986-.433 5.982-.784 8.984-1.07l4.496-.432c1.5-.142 2.995-.283 4.498-.407 3-.27 5.998-.505 9-.739l-.347.552a16.75 16.75 0 00-1.601-3.127 15.566 15.566 0 00-2.215-2.757c-.843-.823-1.818-1.525-2.845-2.136a22.227 22.227 0 00-1.581-.853 20.503 20.503 0 00-1.641-.738z" fill="gray"/>
  <path d="M34.125 7.038c-1.707.102-3.396.148-5.09.21-.846.04-1.693.027-2.54.073l-2.542.134c-1.693.089-3.39.21-5.08.358a176.88 176.88 0 00-5.076.479l-.006-.033c3.366-.486 6.75-.83 10.139-1.073a114.73 114.73 0 015.092-.253c1.7-.032 3.403-.032 5.1.076l.003.03zM5.368 9.4a40.3 40.3 0 00-1.772 3.961c-.246.67-.476 1.342-.646 2.028-.19.683-.309 1.362-.38 2.064-.155 1.43-.28 2.861-.32 4.295-.015.715-.025 1.434.017 2.153.033.718.092 1.437.253 2.152-.368-.643-.564-1.368-.732-2.09a15.537 15.537 0 01-.305-2.198 23.953 23.953 0 01.108-4.42c.164-1.506.644-2.963 1.303-4.286.663-1.332 1.477-2.575 2.474-3.658z" fill="gray"/>
  <defs>
    <linearGradient id="paint1_linear_35_2422" x1="19.5459" y1="8.06207" x2="19.1587" y2="4.90682" gradientUnits="userSpaceOnUse">
      <stop offset="0.065" stopcolor="#B3B3B3"/>
      <stop offset="0.266" stopcolor="#BDBDBD" stopopacity="0.75"/>
      <stop offset="0.611" stopcolor="#D9D9D9" stopopacity="0.323"/>
      <stop offset="0.871" stopcolor="#F2F2F2" stopopacity="0"/>
    </linearGradient>
  </defs>
</svg>