<?xml version="1.0" encoding="utf-8"?>
<svg viewBox="0 0 42 42" xmlns="http://www.w3.org/2000/svg">
  <path d="M21 38.981c-9.155 0-19.031-5.742-19.031-18.342C1.969 8.04 11.845 2.297 21 2.297c5.086 0 9.778 1.673 13.256 4.725 3.774 3.347 5.775 8.072 5.775 13.617 0 5.545-2.001 10.238-5.775 13.584-3.478 3.052-8.203 4.758-13.256 4.758z" style="fill: rgb(255, 248, 47);"/>
  <path d="M36.714 9.735c1.749 2.822 2.661 6.182 2.661 9.92 0 5.545-2.001 10.237-5.775 13.584-3.478 3.052-8.203 4.758-13.256 4.758-5.926 0-12.154-2.412-15.81-7.527C8.067 36.264 14.705 38.98 21 38.98c5.053 0 9.778-1.706 13.257-4.758 3.773-3.346 5.775-8.039 5.775-13.584 0-4.18-1.14-7.895-3.318-10.904z" fill="#EB8F00"/>
  <path d="M11.596 31.06c-.138 1.159 1.129 1.283 1.129 1.283s9.187.378 12.078.38c1.7.004 1.424-1.709-.256-2.979-1.014-.767-2.648-1.588-6.48-1.588-2.96 0-6.317 1.615-6.471 2.904zM14.674 11.205s.61-.35 1.148.086c.299.243.45.699.122 1.03-1.313 1.647-4.752 2.622-6.422 2.136a.602.602 0 01-.13-1.09.6.6 0 01.41-.081c2.162-.24 3.576-.952 4.872-2.08zM22.942 11.018s-.61-.35-1.148.086c-.299.243-.45.699-.121 1.03 1.312 1.647 4.75 2.622 6.421 2.136a.6.6 0 00.387-.761.6.6 0 00-.666-.41c-2.162-.24-3.577-.952-4.873-2.08z" fill="#422B0D"/>
  <path d="M12.367 31.533c-.666.098-1.332.177-2.002.243-.87.082-1.791.128-2.572-.266-.364-.184-.68-.456-1.04-.64-.9-.46-2.018-.335-2.914.135-.778.403-1.44 1.082-1.677 1.926-.236.843.026 1.844.742 2.35 1.237.872.508 1.105.843 2.322.358 1.313 1.844 2.307 3.17 1.926.476-.138.876-.541 1.348-.633.515-.102 1.047.187 1.562.184 1.083-.007 1.844-1.152 1.956-2.231.056-.525.01-1.057.098-1.575.28-1.608 1.743-2.681 2.934-3.794.567-.531-.548-.269-.742-.23-.568.109-1.139.2-1.706.283z" fill="#fff"/>
  <path d="M2.162 32.927c.237-.843.903-1.522 1.677-1.926.896-.466 2.015-.594 2.914-.134.042.023.085.049.128.075-.378-.049-.755-.095-1.145-.059-.568.05-1.139.243-1.559.63-.164.151-.302.331-.42.522-.305.492-.476 1.099-.335 1.66.112.44.5.932.975 1.004.525.079.997-.407 1.545-.338.237.03.49.28.358.48-.079.117-.243.134-.384.16-.45.082-.85.4-1.034.82a1.622 1.622 0 00-.13.66c-.004.846.58 1.667 1.38 1.94a2.073 2.073 0 001.589-.135c.23-.119.36-.352.59-.463.227-.108.555-.125.801-.112.266.014.528.06.794.04.63-.05 1.09-.48 1.352-1.024.299-.623.184-1.22.269-1.89.072-.578.354-1.116.719-1.572.347-.436.77-.827 1.2-1.181.224-.184.48-.322.729-.473.092-.055.66-.475.735-.44.085.04.082.129-.105.303-1.191 1.112-2.655 2.185-2.934 3.793-.091.518-.045 1.053-.098 1.575-.115 1.08-.873 2.224-1.956 2.231-.515.003-1.046-.285-1.561-.184-.473.092-.873.496-1.349.634-1.322.383-2.809-.614-3.17-1.927-.334-1.217.397-1.45-.843-2.323-.705-.502-.968-1.502-.732-2.346z" fill="#92CBEB"/>
  <path d="M15.1 32.435s1.497-1.161 3.593-1.191c2.563-.036 4.804 1.467 4.804 1.467l-8.397-.276z" fill="#F48FB1"/>
  <path d="M22.48 19.163h6.822M8.289 19.163h6.821" stroke="#422B0D" strokewidth="2" strokemiterlimit="10" strokellinecap="round"/>
  <path d="M9.493 19.35a4.41 4.41 0 00-.027.472c0 1.93 1.1 3.094 2.31 3.094 1.211 0 2.31-1.165 2.31-3.094 0-.164-.01-.322-.026-.473H9.493zM23.799 19.163c-.03.21-.046.43-.046.662 0 1.93 1.1 3.095 2.31 3.095s2.31-1.165 2.31-3.095c0-.233-.017-.453-.046-.662h-4.528z" fill="#422B0D"/>
  <path d="M22.047 34.86c-.643.144-1.191.18-1.733.21-.538.023-1.056.02-1.572-.003a21.171 21.171 0 01-1.555-.128 25.486 25.486 0 01-1.693-.266l-.036-.092a5.903 5.903 0 011.637-.423 10.388 10.388 0 011.69-.076c.565.03 1.126.102 1.677.21a8.994 8.994 0 011.62.473l-.035.095z" fill="#EB8F00"/>
</svg>