<?xml version="1.0" encoding="utf-8"?>
<svg viewBox="0 0 42 42" fill="none" xmlns="http://www.w3.org/2000/svg">
  <path d="M21 38.981c-9.155 0-19.031-5.742-19.031-18.342C1.969 8.04 11.845 2.297 21 2.297c5.086 0 9.778 1.673 13.256 4.725 3.774 3.347 5.775 8.072 5.775 13.617 0 5.545-2.001 10.238-5.775 13.584-3.478 3.052-8.203 4.758-13.256 4.758z" style="fill: rgb(255, 248, 47);"/>
  <path d="M36.714 9.735c1.749 2.822 2.661 6.182 2.661 9.92 0 5.545-2.002 10.237-5.775 13.584-3.478 3.052-8.203 4.758-13.256 4.758-5.926 0-12.154-2.412-15.81-7.527C8.066 36.264 14.705 38.98 21 38.98c5.053 0 9.778-1.706 13.256-4.758 3.774-3.346 5.775-8.039 5.775-13.584 0-4.18-1.138-7.895-3.317-10.904z" fill="#EB8F00"/>
  <path d="M36.714 9.735c1.749 2.822 2.661 6.182 2.661 9.92 0 5.545-2.002 10.237-5.775 13.584-3.478 3.052-8.203 4.758-13.256 4.758-5.926 0-12.154-2.412-15.81-7.527C8.066 36.264 14.705 38.98 21 38.98c5.053 0 9.778-1.706 13.256-4.758 3.774-3.346 5.775-8.039 5.775-13.584 0-4.18-1.138-7.895-3.317-10.904z" fill="#EB8F00"/>
  <path d="M26.939 11.38c-2.773.757-4.285 3.113-3.813 6.126.289 1.857 2.15 5.456 7.084 4.367 2.944-.65 4.433-2.793 4.377-5.598-.003-.174-.114-.276-.147-.282 0 0-.069.065-.18.482-.565 2.097-2.038 4.056-4.673 4.348-3.298.367-4.978-1.923-5.234-3.564-.338-2.182.771-4.091 2.917-4.679 1.27-.348 2.504.014 3.387.991.413.46.86 1.31.708 2.15-.416 2.293-2.546 2.26-3.278 1.716-.557-.42-.754-1.293.41-1.579.424-.101.788-.2.903-.76.075-.359-.22-.723-.538-.884-.702-.357-1.592-.026-2.12.434-.568.492-.804 1.263-.653 2.113.118.663.656 1.529 1.585 1.991 1.145.571 4.164.502 4.873-2.457.325-1.362-.27-2.77-.906-3.495-1.795-2.03-4.25-1.545-4.702-1.42zM15.061 21.936c2.773-.758 4.285-3.114 3.813-6.126-.289-1.857-2.15-5.457-7.084-4.368-2.944.65-4.433 2.793-4.378 5.598.004.174.115.276.148.282 0 0 .069-.065.18-.482.565-2.097 2.038-4.056 4.673-4.348 3.298-.367 4.978 1.923 5.234 3.564.338 2.182-.771 4.092-2.917 4.679-1.27.348-2.504-.013-3.387-.991-.413-.46-.86-1.31-.708-2.15.416-2.293 2.546-2.26 3.278-1.715.557.42.754 1.293-.41 1.578-.424.102-.788.2-.903.761-.075.358.22.722.538.883.702.358 1.592.026 2.12-.433.568-.492.804-1.264.653-2.113-.118-.663-.656-1.53-1.585-1.992-1.145-.571-4.164-.502-4.873 2.458-.325 1.361.27 2.769.906 3.494 1.795 2.028 4.25 1.546 4.702 1.42zM32.645 28.632c-.489-.564-1.985-1.578-4.702-.25-.604.296-.922.63-2.015.552-.718-.05-1.256-.397-1.873-.794-.784-.505-1.674-1.07-3.052-1.125-1.378.055-2.267.62-3.051 1.125-.62.4-1.155.745-1.874.794-1.092.079-1.44-.203-2.044-.499-2.717-1.329-4.184-.367-4.673.197-.436.505-.14 1.044.663.47.496-.355 1.385-.805 3.396.33.647.365 1.257.916 2.75.811 1.057-.075 1.788-.544 2.494-1 .689-.447 1.348-.863 2.34-.916.994.052 1.65.47 2.339.915.705.457 1.437.93 2.494 1.001 1.493.105 2.073-.498 2.72-.863 2.011-1.135 2.93-.633 3.425-.279.801.575 1.1.037.663-.469z" fill="#422B0D"/>
</svg>