<?xml version="1.0" encoding="utf-8"?>
<svg viewBox="0 0 42 42" fill="none" xmlns="http://www.w3.org/2000/svg">
  <path d="M20.869 38.981c-9.155 0-19.032-5.742-19.032-18.342 0-12.6 9.877-18.342 19.032-18.342 5.086 0 9.778 1.673 13.256 4.725 3.773 3.347 5.775 8.072 5.775 13.617 0 5.545-2.002 10.238-5.775 13.584-3.478 3.052-8.203 4.758-13.256 4.758z" style="fill: rgb(255, 248, 47);"/>
  <path d="M36.583 9.735c1.749 2.822 2.66 6.182 2.66 9.92 0 5.545-2 10.237-5.774 13.584-3.478 3.052-8.203 4.758-13.256 4.758-5.926 0-12.141-2.412-15.81-7.527 3.531 5.794 10.172 8.511 16.466 8.511 5.053 0 9.778-1.706 13.256-4.758C37.9 30.877 39.9 26.184 39.9 20.64c0-4.18-1.139-7.895-3.317-10.904z" fill="#789E46"/>
  <path opacity="0.65" d="M30.23 35.434c2.35 0 4.256-1.747 4.256-3.901 0-2.155-1.905-3.902-4.256-3.902-2.35 0-4.256 1.747-4.256 3.902 0 2.154 1.906 3.901 4.256 3.901z" style="fill: rgb(48, 99, 31);"/>
  <path opacity="0.65" d="M12.134 36.09c2.35 0 4.256-1.746 4.256-3.901s-1.905-3.901-4.256-3.901c-2.35 0-4.256 1.746-4.256 3.901s1.906 3.901 4.256 3.901z" style="fill: rgb(48, 99, 31);"/>
  <path d="M14.02 28.593c.87.416 1.868 1.595 2.232 2.487.282.709.358 1.486.21 2.238M27.727 28.353c-.87.414-1.874 1.585-2.238 2.478a3.912 3.912 0 00-.292 1.407M16.226 30.903s.564-1.578 4.656-1.64c3.71-.06 4.593 1.131 4.593 1.131" stroke="#35220B" strokelinecap="round" strokelinejoin="round"/>
  <path d="M8.99 16.997c-.721.131-.754 1.181.033 1.214a6.766 6.766 0 004.693-1.805c.485-.42.895-.918 1.214-1.476a.6.6 0 10-.985-.69l-.033.033a8.54 8.54 0 01-4.921 2.724zM27.726 11.944a.6.6 0 10-.984.689 5.66 5.66 0 001.214 1.476 6.875 6.875 0 004.692 1.805c.82-.033.755-1.083.033-1.214a8.38 8.38 0 01-4.955-2.756zM12.387 20.557a1.163 1.163 0 00-.627 1.313c.328 1.414 1.43 2.234 2.609 2.234 1.424 0 2.717-1.204 2.717-3.2a3.958 3.958 0 00-.135-1.056 1.138 1.138 0 00-1.601-.705l-2.963 1.414z" fill="#422B0D"/>
  <path d="M15.547 20.272c-.18-.273-.637-.329-1.12 0-.482.328-.606.76-.426 1.033.184.276.637.328 1.119 0s.607-.758.427-1.033z" fill="#896024"/>
  <path d="M29.479 20.557c.492.236.754.78.63 1.313-.345 1.414-1.434 2.234-2.625 2.234-1.425 0-2.72-1.204-2.72-3.2 0-.357.042-.711.134-1.056a1.144 1.144 0 011.605-.705l2.976 1.414z" fill="#422B0D"/>
  <path d="M26.319 20.272c.184-.273.656-.329 1.122 0 .466.328.607.76.423 1.033-.18.276-.636.328-1.119 0-.482-.328-.607-.758-.426-1.033z" fill="#896024"/>
</svg>