<?xml version="1.0" encoding="utf-8"?>
<svg viewBox="0 0 42 42" fill="none" xmlns="http://www.w3.org/2000/svg">
  <path d="M20.869 38.981c-9.155 0-19.032-5.742-19.032-18.342 0-12.6 9.877-18.342 19.032-18.342 5.086 0 9.778 1.673 13.256 4.725 3.773 3.347 5.775 8.072 5.775 13.617 0 5.545-2.002 10.238-5.775 13.584-3.478 3.052-8.203 4.758-13.256 4.758z" style="fill: rgb(255, 248, 47);"/>
  <path d="M36.583 9.735c1.749 2.822 2.66 6.182 2.66 9.92 0 5.545-2 10.237-5.774 13.584-3.478 3.052-8.203 4.758-13.256 4.758-5.926 0-12.141-2.412-15.81-7.527 3.531 5.794 10.172 8.511 16.466 8.511 5.053 0 9.778-1.706 13.256-4.758C37.9 30.877 39.9 26.184 39.9 20.64c0-4.18-1.139-7.895-3.317-10.904z" fill="#EB8F00"/>
  <path d="M18.828 21.79l-.066-.045-.033-.026c-1.184-.85-4.101-3.2-5.315-4.03a1.339 1.339 0 00-1.707.099 1.315 1.315 0 00.164 1.968c.033.033.066.033.099.066l3.573 1.578c-.269 0-.535 0-.784.03l-1.149.098c-.393.066-.82.132-1.246.197-.427.066-.92.197-1.411.328a2.531 2.531 0 00-1.083.624c-.286.256-.47.603-.525.984-.04.364.043.735.23 1.05.157.282.416.492.721.59.306.1.63.132.952.1.351-.047.686-.171.984-.362.427-.23.854-.46 1.247-.623.374-.177.762-.332 1.155-.463.368-.128.739-.24 1.116-.328.4-.099.804-.174 1.214-.23.427-.065.919-.098 1.444-.131a.817.817 0 00.656-.787.831.831 0 00-.236-.686zM32.648 23.658a1.636 1.636 0 00-.525-.985 2.53 2.53 0 00-1.083-.623c-.492-.131-.951-.23-1.41-.328-.46-.099-.854-.131-1.247-.197l-1.149-.098a9.369 9.369 0 00-.814-.03l3.57-1.578c.033-.033.066-.033.099-.066a1.307 1.307 0 00.275-1.834 2.194 2.194 0 00-.111-.135 1.34 1.34 0 00-1.706-.098c-1.182.83-4.099 3.18-5.283 4.03l-.033.025-.066.047a.831.831 0 00-.236.685.816.816 0 00.656.788c.525.033 1.017.065 1.444.131.41.056.817.134 1.22.233.378.089.749.2 1.116.328.39.131.775.282 1.149.46.393.163.82.393 1.247.623.295.197.633.318.984.36.322.034.646 0 .952-.098.305-.098.564-.308.722-.59.187-.315.269-.686.23-1.05zM21 27.3c3.544 0 5.84 2.592 6.464 3.806.23.46.23.853.033 1.017a.652.652 0 01-.69 0 1.448 1.448 0 01-.294-.164A9.614 9.614 0 0021 30.155a9.868 9.868 0 00-5.512 1.771c-.092.066-.19.122-.296.165a.652.652 0 01-.689 0c-.197-.197-.197-.558.033-1.018.623-1.18 2.92-3.773 6.464-3.773zM8.99 14.044c-.721.131-.754 1.181.033 1.214a6.767 6.767 0 004.693-1.805c.485-.42.895-.919 1.214-1.476a.6.6 0 10-.985-.69l-.033.033a8.54 8.54 0 01-4.921 2.724zM27.726 11.287a.599.599 0 00-.998.022.601.601 0 00.014.668 5.66 5.66 0 001.214 1.476 6.875 6.875 0 004.692 1.805c.82-.033.755-1.083.033-1.214a8.38 8.38 0 01-4.955-2.757z" fill="#422B0D"/>
</svg>