<svg viewBox="0 0 42 42" fill="none" xmlns="http://www.w3.org/2000/svg">
  <path d="M6.864 6.152l28.83-.748v29.04c0 2.063-6.455 3.737-14.415 3.737-7.96 0-14.415-1.674-14.415-3.738" fill="#B7D5E5" />
  <path d="M21 9.28c8.139 0 14.736-1.674 14.736-3.738S29.14 1.805 21 1.805 6.264 3.478 6.264 5.542 12.86 9.279 21 9.279z" fill="#E0E0E0" />
  <path d="M21 7.094c3.38 0 6.12-.695 6.12-1.552 0-.857-2.74-1.552-6.12-1.552s-6.12.695-6.12 1.552c0 .857 2.74 1.552 6.12 1.552z" fill="#82AEC0" />
  <path d="M21 6.625c2.765 0 5.007-.516 5.007-1.152 0-.636-2.242-1.152-5.007-1.152-2.765 0-5.007.516-5.007 1.152 0 .636 2.242 1.152 5.007 1.152z" fill="#2F7889" />
  <path d="M21 1.805c-.695 0-1.706.023-2.044.036-.341.013-.308.197 0 .213.308.016 4.87.246 7.366.525 3.6.4 6.471 1.201 7.63 1.91.403.246 1.486.679.96 1.762-.137.282-.501.843-2.306 1.594-.68.283 2.412.486 3.088-.21 0 0 .042-1.447.042-2.09 0-2.067-6.598-3.74-14.736-3.74z" fill="#B7D5E5" />
  <path d="M27.605 13.089s-4.036-1.68-11.95-2.858c-7.869-1.172-8.98-3.816-8.98-3.816V34.04c.993 4.239 13.19 4.449 16.9 4.866 1.95.22 4.73 1.68 4.73 1.68 1.026-2.028-1.097-8.01-1.205-9.552-.177-2.51.892-2.458.892-4.938 0-2.48-.922-3.37-1.22-6.402-.299-3.032.88-3.514.833-6.605z" fill="#fff" />
  <path d="M15.189 10.986a1105.603 1105.603 0 0112.416 2.106c-.167-.069-3.993-1.844-11.875-3.019-7.376-1.099-8.38-3.356-9.466-4.36 0 0 .24 3.842 8.925 5.273z" fill="#EEE" />
  <path d="M26.903 15.53c-.44 1.132-.942 2.415-.774 4.125.154 1.584.466 2.641.741 3.573.506 1.375.873 2.864.092 5.07-.712 2.014-.87 4.196.328 7.363.161.426.968 2.697 1.09 5.187 0 0 .003 0 .003.004 0 0 .66-1.86.233-3.974-.548-2.717-1.188-3.038-1.267-4.935-.105-2.609.945-3.17 1.034-5.742.098-2.92-.958-3.498-1.267-6.645-.295-3.018.968-3.553.49-6.467-.162.794-.319 1.45-.703 2.441z" fill="#81B6CC" />
  <path d="M23.917 38.512c-.587-.105-1.378-.128-2.287-.197-2.572-.2-6.093-.472-9.096-1.155-3.875-.88-5.02-2.014-5.276-2.841 0 0 .102-23.235.04-24.58-.086-1.88-1.034-4.026-1.034-4.026V34.45c1.03 4.397 13.69 4.62 17.541 5.053 2.022.226 3.567.83 4.581 1.352 0-.003-.17-1.575-4.469-2.343z" fill="#B7D5E5" />
  <path d="M35.001 8.899c-.046 1.3-.302 25.548-.302 25.548-.013.16-3.606 2.549-6.762.068l.45 3.183c4.363-.643 7.31-1.857 7.31-3.252l.042-28.907c-.003.003-.669 1.348-.738 3.36z" fill="#81B6CC" />
</svg>