<?xml version="1.0" encoding="utf-8"?>
<svg viewBox="0 0 42 42" fill="none" xmlns="http://www.w3.org/2000/svg">
  <path d="M21 38.981c-9.155 0-19.031-5.742-19.031-18.342C1.969 8.04 11.845 2.297 21 2.297c5.086 0 9.778 1.673 13.256 4.725 3.774 3.347 5.775 8.072 5.775 13.617 0 5.545-2.001 10.238-5.775 13.584-3.478 3.052-8.203 4.758-13.256 4.758z" fill="url(#paint0_radial_35_2947)"/>
  <path d="M21 38.981c-9.155 0-19.031-5.742-19.031-18.342C1.969 8.04 11.845 2.297 21 2.297c5.086 0 9.778 1.673 13.256 4.725 3.774 3.347 5.775 8.072 5.775 13.617 0 5.545-2.001 10.238-5.775 13.584-3.478 3.052-8.203 4.758-13.256 4.758z" style="fill: rgb(255, 248, 47);"/>
  <path d="M36.714 9.735c1.749 2.822 2.661 6.182 2.661 9.92 0 5.545-2.001 10.237-5.775 13.584-3.478 3.052-8.203 4.758-13.256 4.758-5.926 0-12.14-2.412-15.81-7.527C8.067 36.264 14.708 38.98 21 38.98c5.053 0 9.778-1.706 13.257-4.758 3.773-3.346 5.775-8.039 5.775-13.584 0-4.18-1.14-7.895-3.318-10.904z" fill="#EB8F00"/>
  <path d="M20.77 36.107c5.118 0 9.266-3.633 9.266-8.115 0-4.481-4.148-8.114-9.266-8.114-5.117 0-9.266 3.633-9.266 8.114 0 4.482 4.149 8.115 9.266 8.115z" fill="#422B0D"/>
  <path d="M31.569 16.101s-2.038-3.632-6.25-2.858M10.553 16.101s2.047-3.632 6.25-2.858" stroke="#35220B" strokewidth="2" strokemiterlimit="10" strokelinecap="round"/>
  <path d="M26.867 28.107c-.729-1.043-2.625.023-2.625.023s.984-.856 1.805-1.64c.524-.502.984-1.572.554-2.297-.43-.726-1.68-.68-2.293-.302l-2.406 1.476s.903-.393 1.175-1.942a1.175 1.175 0 00-1.185-1.483 3.03 3.03 0 00-1.565.603c-1.739 1.234-6.382 4.38-7.422 4.299-.403-.033-.44-.095.41-1.913.571-1.09.624-2.379.145-3.511-.28-.656-1.566-.837-1.97-.204-.304.466-.524 1.608-1.056 2.757-.892 1.887-2.95 4.42-3.117 4.669-1.224 1.811-3.504 5.188-1.115 8.974 2.113 3.354 6.936 3.511 9.407 2.625 4.722-1.673 9.07-4.889 9.151-4.955.86-.682 1.64-1.683 1.287-2.595-.437-1.129-1.884-.46-1.884-.46a9.11 9.11 0 002.221-1.896c.601-.774.972-1.522.483-2.228z" style="fill: rgb(255, 248, 47);"/>
  <path d="M26.775 30.637c.387-.499 1.293-1.664.499-2.809a1.742 1.742 0 00-1.146-.735c.778-.646 1.612-2.155.722-3.396-.331-.462-.964-.823-1.972-.59-.725.167-1.375.702-1.375.702.023-.089.594-1.7-1.378-2.1-.794-.161-1.696.364-2.215.754-2.995 2.127-6.884 4.148-6.752 3.869 1.263-1.532 1.519-3.8.741-5.145-.275-.653-1.955-1.142-2.503-.243-.45.739-.748 2.504-1.588 3.908-.65 1.086-3.616 4.824-4.151 6.674 0 0 .725-1.08 1.87-2.605 1.217-1.628 2.871-3.734 3.36-4.741.443-.896.65-1.97 1.024-2.698.184-.305.928-.594 1.408.345.482.938.249 2.074-.414 3.343-.682 1.457-.984 1.513-.676 1.835 1.044 1.073 7.065-3.223 8.4-4.063.375-.284.821-.46 1.29-.505.899-.128.853 1.132.853 1.132-.253 1.034-.414 1.034-1.444 1.9-.732.614-3.32 2.497-5 3.344 0 0 .029.384.807.164.78-.22 3.842-2.146 5.492-3.469 0 0 2.14-1.827 3.052-1.571.925.262.843.905.551 1.516-.292.61-1.047 1.345-2.247 2.26-2.16 1.641-5.503 3.879-5.503 3.879s.069.328.718.14c1.323-.383 5.45-3.441 5.45-3.441.322-.25 1.398-.594 1.818.111.227.332.174.873-.62 1.812-.945 1.125-3.829 3.087-6.336 4.511 0 0 .19.322.883.086.689-.236 3.553-1.979 4.006-2.13.453-.15.906-.295 1.208.24.357.738-.122 1.322-1.07 2.077-.04.03-4.554 3.56-9.25 5.148-2.48.84-5.253.407-8.433-1.67 1.93 2.33 6.143 3.37 9 2.326 4.808-1.758 9.257-5.004 9.293-5.033.69-.548 2.123-1.683 1.333-3.308a1.62 1.62 0 00-.785-.718c.381-.345.742-.709 1.08-1.106z" fill="#EB8F00"/>
  <path d="M19.409 38.912c1.43.072 2.772.04 2.772.04 2.107-1.175 4.043-3.977 4.266-4.59.223-.614-7.974 4.501-7.038 4.55z" fill="#EB8F00"/>
  <defs>
    <radialGradient id="paint0_radial_35_2947" cx="0" cy="0" r="1" gradientUnits="userSpaceOnUse" gradientTransform="translate(21 20.64) scale(18.69)">
      <stop offset="0.5" stopcolor="#FDE030"/>
      <stop offset="0.92" stopcolor="#F7C02B"/>
      <stop offset="1" stopcolor="#F4A223"/>
    </radialGradient>
  </defs>
</svg>