<svg width="21" height="22" viewBox="0 0 21 22" fill="none" xmlns="http://www.w3.org/2000/svg">
<path d="M5.87284 2.33263L4.41098 0.795071C1.95751 2.76271 0.342307 5.79481 0.199188 9.2355H2.24375C2.39709 6.38618 3.78739 3.89169 5.87284 2.33263ZM18.5389 9.2355H20.5834C20.4301 5.79481 18.8149 2.76271 16.3717 0.795071L14.92 2.33263C16.985 3.89169 18.3855 6.38618 18.5389 9.2355ZM16.525 9.7731C16.525 6.4722 14.8485 3.7089 11.9247 2.97775V2.24661C11.9247 1.35418 11.2398 0.633789 10.3913 0.633789C9.54283 0.633789 8.8579 1.35418 8.8579 2.24661V2.97775C5.92396 3.7089 4.25764 6.46145 4.25764 9.7731V15.1492L2.21308 17.2996V18.3748H18.5696V17.2996L16.525 15.1492V9.7731ZM10.3913 21.6005C10.5344 21.6005 10.6673 21.5897 10.8002 21.5574C11.4647 21.4069 12.0065 20.9338 12.2723 20.2887C12.3745 20.0306 12.4257 19.7511 12.4257 19.45H8.33654C8.34676 20.6328 9.25659 21.6005 10.3913 21.6005Z" fill="#195CA3"/>
</svg>
