<?xml version="1.0" encoding="UTF-8" standalone="no"?>
<!-- Created with Inkscape (http://www.inkscape.org/) -->

<svg
   width="130.04799mm"
   height="132.61049mm"
   viewBox="0 0 130.04799 132.61049"
   version="1.1"
   id="svg899">
  <defs
     id="defs896" />
  <g
     id="layer1"
     transform="translate(-31.267291,-64.771216)">
    <path
       id="_334446136"
       class="fil0"
       d="M 132.36308,99.737359 H 158.663 c 1.46479,0 2.65229,-1.187501 2.65229,-2.652293 V 72.674167 c 0,-1.464793 -1.1875,-2.652293 -2.65229,-2.652293 h -26.29992 c -1.4647,0 -2.6523,1.1875 -2.6523,2.652293 v 24.410899 c 0,1.464792 1.1876,2.652293 2.6523,2.652293 z"
       style="clip-rule:evenodd;fill:#717171;fill-rule:nonzero;stroke-width:25.4;image-rendering:optimizeQuality;shape-rendering:geometricPrecision;text-rendering:geometricPrecision" />
    <path
       id="_334446592"
       class="fil1"
       d="m 158.663,94.432823 h -26.29992 c -1.4647,0 -2.6523,1.187501 -2.6523,2.652192 v 24.411105 c 0,1.46479 1.1876,2.65229 2.6523,2.65229 H 158.663 c 1.46479,0 2.65229,-1.1875 2.65229,-2.65229 V 97.085015 c 0,-1.464691 -1.1875,-2.652192 -2.65229,-2.652192 z"
       style="clip-rule:evenodd;fill:#5b5b5b;fill-rule:nonzero;stroke-width:25.4;image-rendering:optimizeQuality;shape-rendering:geometricPrecision;text-rendering:geometricPrecision" />
    <path
       id="_334446112"
       class="fil2"
       d="M 132.36308,148.55946 H 158.663 c 1.46479,0 2.65229,-1.1875 2.65229,-2.65229 v -24.4111 c 0,-1.4647 -1.1875,-2.6522 -2.65229,-2.6522 h -26.29992 c -1.4647,0 -2.6523,1.1875 -2.6523,2.6522 v 24.4111 c 0,1.46479 1.1876,2.65229 2.6523,2.65229 z"
       style="clip-rule:evenodd;fill:#727272;fill-rule:nonzero;stroke-width:25.4;image-rendering:optimizeQuality;shape-rendering:geometricPrecision;text-rendering:geometricPrecision" />
    <path
       id="_334446304"
       class="fil3"
       d="m 158.663,172.97038 h -26.29992 c -1.4647,0 -2.6523,-1.1875 -2.6523,-2.65229 v -24.4111 c 0,-1.46469 1.1876,-2.65219 2.6523,-2.65219 H 158.663 c 1.46479,0 2.65229,1.1875 2.65229,2.65219 v 24.4111 c 0,1.46479 -1.1875,2.65229 -2.65229,2.65229 z"
       style="clip-rule:evenodd;fill:#959595;fill-rule:nonzero;stroke-width:25.4;image-rendering:optimizeQuality;shape-rendering:geometricPrecision;text-rendering:geometricPrecision" />
    <path
       id="_334445872"
       class="fil4"
       d="m 40.157519,64.771211 h 92.205561 c 1.46479,0 2.65229,1.187501 2.65229,2.652293 V 167.66613 h 23.6475 c 1.46479,0 2.65229,1.1875 2.65229,2.65219 v 24.4111 c 0,1.46479 -1.1875,2.6523 -2.65229,2.6523 H 132.36295 40.157392 c -1.464691,0 -2.652293,-1.18751 -2.652293,-2.6523 v -5.30451 h 0.07188 v -10.60889 h -0.07188 v -2.65209 h 0.07188 v -10.6089 h -0.07188 v -2.65199 h 0.07188 v -10.60889 h -0.07188 v -2.65209 h 0.07188 v -10.60889 h -0.07188 v -2.6522 h 0.07188 v -10.60879 h -0.07188 v -2.65209 h 0.07188 V 112.5112 h -0.07188 v -2.65209 h 0.07188 V 99.250212 h -0.07188 v -2.651988 h 0.07188 V 85.98933 h -0.07188 v -2.652192 h 0.07188 V 72.728244 h -0.07188 v -5.304511 c 0,-1.4648 1.187602,-2.652293 2.652293,-2.652293 z"
       style="clip-rule:evenodd;fill:#858585;fill-rule:evenodd;stroke-width:25.4;image-rendering:optimizeQuality;shape-rendering:geometricPrecision;text-rendering:geometricPrecision" />
    <polygon
       id="_334445800"
       class="fil5"
       points="2.90915,4.09234 2.90915,4.0018 2.90915,3.63967 2.54702,3.63967 2.45648,3.63967 2.45648,3.54913 2.45648,3.27753 2.45648,3.18699 2.54702,3.18699 2.90915,3.18699 2.90915,2.82486 2.90915,2.73432 2.99969,2.73432 3.27129,2.73432 3.36183,2.73432 3.36183,2.82486 3.36183,3.18699 3.72396,3.18699 3.8145,3.18699 3.8145,3.27753 3.8145,3.54913 3.8145,3.63967 3.72396,3.63967 3.36183,3.63967 3.36183,4.0018 3.36183,4.09234 3.27129,4.09234 2.99969,4.09234 "
       style="clip-rule:evenodd;fill:#6c6c6c;fill-rule:evenodd;image-rendering:optimizeQuality;shape-rendering:geometricPrecision;text-rendering:geometricPrecision"
       transform="matrix(25.4,0,0,25.4,9.5926833,44.377805)" />
    <path
       id="_334445584"
       class="fil6"
       d="m 106.11294,114.19758 c -4.3194,-4.3194 -10.287003,-6.9911 -16.878709,-6.9911 -6.591707,0 -12.559309,2.6717 -16.878706,6.9911 -4.319398,4.3194 -6.990995,10.287 -6.990995,16.87871 0,6.5917 2.671597,12.5593 6.990995,16.8787 4.319397,4.3194 10.286999,6.9911 16.878706,6.9911 6.591706,0 12.559309,-2.6717 16.878709,-6.9911 4.31939,-4.3194 6.99109,-10.287 6.99109,-16.8787 0,-6.59171 -2.6717,-12.55931 -6.99109,-16.87871 z M 89.234333,101.90197 c 8.055787,0 15.349497,3.2656 20.629197,8.5451 5.27949,5.27969 8.54509,12.5734 8.54509,20.62919 0,8.05579 -3.2656,15.3495 -8.54509,20.62919 -5.2797,5.2795 -12.57341,8.5451 -20.629197,8.5451 -8.055788,0 -15.3495,-3.2656 -20.629093,-8.5451 -5.279593,-5.27969 -8.545195,-12.5734 -8.545195,-20.62919 0,-8.05579 3.265602,-15.3495 8.545195,-20.62919 5.279593,-5.2795 12.573305,-8.5451 20.629093,-8.5451 z"
       style="clip-rule:evenodd;fill:#f0f0f0;fill-rule:evenodd;stroke-width:25.4;image-rendering:optimizeQuality;shape-rendering:geometricPrecision;text-rendering:geometricPrecision" />
    <path
       id="_334445968"
       class="fil7"
       d="m 33.919584,101.9022 c -1.4648,0 -2.652293,1.1875 -2.652293,2.65229 0,1.4647 1.1875,2.6522 2.652293,2.6522 h 9.860407 c 1.464691,0 2.652294,-1.1875 2.652294,-2.6522 0,-1.46479 -1.187603,-2.65229 -2.652294,-2.65229 z m 0,-13.261009 c -1.4648,0 -2.652293,1.187603 -2.652293,2.652294 0,1.464792 1.1875,2.652293 2.652293,2.652293 h 9.860407 c 1.464691,0 2.652294,-1.187501 2.652294,-2.652293 0,-1.464691 -1.187603,-2.652294 -2.652294,-2.652294 z m 0,-13.26101 c -1.4648,0 -2.652293,1.187501 -2.652293,2.652294 0,1.464691 1.1875,2.652192 2.652293,2.652192 h 9.860407 c 1.464691,0 2.652294,-1.187501 2.652294,-2.652192 0,-1.464793 -1.187603,-2.652294 -2.652294,-2.652294 z m 0,106.087929 c -1.4648,0 -2.652293,1.1875 -2.652293,2.65219 0,1.46479 1.1875,2.65229 2.652293,2.65229 h 9.860407 c 1.464691,0 2.652294,-1.1875 2.652294,-2.65229 0,-1.46469 -1.187603,-2.65219 -2.652294,-2.65219 z m 0,-13.26101 c -1.4648,0 -2.652293,1.1875 -2.652293,2.65229 0,1.46469 1.1875,2.65229 2.652293,2.65229 h 9.860407 c 1.464691,0 2.652294,-1.1876 2.652294,-2.65229 0,-1.46479 -1.187603,-2.65229 -2.652294,-2.65229 z m 0,-13.26091 c -1.4648,0 -2.652293,1.1875 -2.652293,2.65219 0,1.46479 1.1875,2.65229 2.652293,2.65229 h 9.860407 c 1.464691,0 2.652294,-1.1875 2.652294,-2.65229 0,-1.46469 -1.187603,-2.65219 -2.652294,-2.65219 z m 0,-13.26101 c -1.4648,0 -2.652293,1.1875 -2.652293,2.65229 0,1.46469 1.1875,2.65219 2.652293,2.65219 h 9.860407 c 1.464691,0 2.652294,-1.1875 2.652294,-2.65219 0,-1.46479 -1.187603,-2.65229 -2.652294,-2.65229 z m 0,-13.26111 c -1.4648,0 -2.652293,1.1876 -2.652293,2.65229 0,1.46469 1.1875,2.65229 2.652293,2.65229 h 9.860407 c 1.464691,0 2.652294,-1.1876 2.652294,-2.65229 0,-1.46469 -1.187603,-2.65229 -2.652294,-2.65229 z m 0,-13.26091 c -1.4648,0 -2.652293,1.1875 -2.652293,2.65219 0,1.46479 1.1875,2.6523 2.652293,2.6523 h 9.860407 c 1.464691,0 2.652294,-1.18751 2.652294,-2.6523 0,-1.46469 -1.187603,-2.65219 -2.652294,-2.65219 z"
       style="clip-rule:evenodd;fill:#444444;fill-rule:nonzero;stroke-width:25.4;image-rendering:optimizeQuality;shape-rendering:geometricPrecision;text-rendering:geometricPrecision" />
    <path
       id="_334445608"
       class="fil8"
       d="m 152.08618,163.04203 h -2.16681 l -0.8609,-2.2403 h -3.94108 l -0.81271,2.2403 h -2.1117 l 3.8402,-9.8588 h 2.105 z m -3.66571,-3.89999 -1.3589,-3.65889 -1.3314,3.65889 z"
       style="clip-rule:evenodd;fill:#ffffff;fill-rule:nonzero;stroke-width:25.4;image-rendering:optimizeQuality;shape-rendering:geometricPrecision;text-rendering:geometricPrecision" />
    <path
       id="_334445632"
       class="fil8"
       d="m 143.00999,128.77235 h 3.9413 c 0.78031,0 1.36349,0.032 1.7467,0.0986 0.38342,0.0643 0.7253,0.19965 1.0284,0.4063 0.30299,0.20651 0.55321,0.47971 0.75529,0.82411 0.20168,0.34191 0.3028,0.7276 0.3028,1.15229 0,0.46129 -0.12396,0.88611 -0.37181,1.2716 -0.25019,0.3857 -0.5876,0.67491 -1.01229,0.86769 0.59911,0.1745 1.06291,0.4728 1.3841,0.89299 0.3238,0.4223 0.4845,0.91811 0.4845,1.4874 0,0.4475 -0.10338,0.88359 -0.31219,1.3084 -0.20879,0.4222 -0.4935,0.76211 -0.854,1.0145 -0.3603,0.25248 -0.80569,0.40861 -1.33581,0.4683 -0.33061,0.0343 -1.1317,0.0574 -2.40109,0.0666 h -3.3559 z m 1.9924,1.6411 v 2.27929 h 1.30381 c 0.7759,0 1.25791,-0.0113 1.4461,-0.0343 0.3398,-0.0391 0.6083,-0.15621 0.8034,-0.3512 0.19507,-0.19508 0.29149,-0.4522 0.29149,-0.7713 0,-0.30521 -0.0828,-0.55311 -0.25019,-0.74381 -0.16992,-0.1905 -0.41999,-0.30511 -0.75049,-0.3442 -0.19761,-0.0229 -0.76439,-0.0345 -1.70091,-0.0345 z m 0,3.92059 v 2.6353 h 1.8409 c 0.71848,0 1.17299,-0.0184 1.36591,-0.0597 0.29608,-0.0528 0.5371,-0.18593 0.72308,-0.39261 0.18593,-0.20904 0.27991,-0.4889 0.27991,-0.83789 0,-0.29599 -0.0734,-0.54621 -0.21565,-0.75281 -0.14452,-0.2065 -0.3512,-0.35819 -0.62199,-0.4522 -0.27099,-0.0942 -0.86091,-0.1402 -1.7653,-0.1402 z"
       style="clip-rule:evenodd;fill:#ffffff;fill-rule:nonzero;stroke-width:25.4;image-rendering:optimizeQuality;shape-rendering:geometricPrecision;text-rendering:geometricPrecision" />
    <path
       id="_334444600"
       class="fil8"
       d="m 149.50477,110.59561 1.92809,0.61069 c -0.29598,1.0765 -0.7873,1.87541 -1.47589,2.3987 -0.68621,0.521 -1.56091,0.7827 -2.6191,0.7827 -1.3083,0 -2.3848,-0.4477 -3.22729,-1.34051 -0.8424,-0.8952 -1.2647,-2.11859 -1.2647,-3.66799 0,-1.6413 0.42462,-2.91531 1.2716,-3.8243 0.84699,-0.9067 1.9603,-1.36121 3.34211,-1.36121 1.2051,0 2.18529,0.3559 2.93809,1.06969 0.44999,0.4202 0.78502,1.02611 1.01001,1.8157 l -1.9717,0.47061 c -0.11481,-0.51189 -0.35819,-0.9158 -0.73,-1.21209 -0.36959,-0.29601 -0.8194,-0.4429 -1.34739,-0.4429 -0.72989,0 -1.32441,0.26159 -1.77889,0.7873 -0.45451,0.52329 -0.68179,1.37259 -0.68179,2.5479 0,1.2465 0.22276,2.13479 0.6727,2.66271 0.4475,0.5303 1.0305,0.7943 1.74671,0.7943 0.5303,0 0.9848,-0.16764 1.3657,-0.5051 0.38121,-0.3351 0.65431,-0.8654 0.82179,-1.58623 z"
       style="clip-rule:evenodd;fill:#ffffff;fill-rule:nonzero;stroke-width:25.4;image-rendering:optimizeQuality;shape-rendering:geometricPrecision;text-rendering:geometricPrecision" />
    <path
       id="_334444744"
       class="fil8"
       d="m 143.00771,79.950251 h 3.63819 c 0.81951,0 1.44389,0.06198 1.87541,0.188214 0.57851,0.169926 1.07429,0.472897 1.48519,0.90899 0.41311,0.433806 0.72761,0.96619 0.94341,1.595298 0.21361,0.631291 0.32131,1.407007 0.32131,2.332101 0,0.81031 -0.10084,1.510411 -0.3029,2.097913 -0.24562,0.716305 -0.5968,1.297 -1.0559,1.740103 -0.3443,0.337413 -0.81041,0.59911 -1.39789,0.787298 -0.43841,0.140208 -1.02611,0.208788 -1.76281,0.208788 h -3.74401 z m 1.99019,1.668602 v 6.52841 h 1.48519 c 0.55529,0 0.9571,-0.02997 1.205,-0.09423 0.32131,-0.08052 0.58989,-0.215646 0.8034,-0.40861 0.21362,-0.192786 0.3856,-0.511988 0.52111,-0.952602 0.13309,-0.44069 0.20193,-1.044498 0.20193,-1.806397 0,-0.762101 -0.0688,-1.345311 -0.20193,-1.753794 -0.13538,-0.408609 -0.3237,-0.72771 -0.56459,-0.954989 -0.24334,-0.229616 -0.55101,-0.38321 -0.92291,-0.463601 -0.2776,-0.06426 -0.82179,-0.09423 -1.63431,-0.09423 z"
       style="clip-rule:evenodd;fill:#ffffff;fill-rule:nonzero;stroke-width:25.4;image-rendering:optimizeQuality;shape-rendering:geometricPrecision;text-rendering:geometricPrecision" />
  </g>
</svg>
