<svg width="25" height="22" viewBox="0 0 25 22" fill="none" xmlns="http://www.w3.org/2000/svg">
  <path d="M12.025 5.67495L4.2457 13.0903V21.0937C4.2457 21.3009 4.31683 21.4996 4.44344 21.6462C4.57004 21.7927 4.74176 21.875 4.92081 21.875L9.64905 21.8608C9.82752 21.8598 9.99836 21.777 10.1242 21.6306C10.2501 21.4842 10.3208 21.286 10.3208 21.0795V16.4056C10.3208 16.1984 10.3919 15.9997 10.5185 15.8531C10.6451 15.7066 10.8168 15.6243 10.9959 15.6243H13.6963C13.8753 15.6243 14.0471 15.7066 14.1737 15.8531C14.3003 15.9997 14.3714 16.1984 14.3714 16.4056V21.0761C14.3711 21.1789 14.3884 21.2808 14.4222 21.3758C14.456 21.4709 14.5057 21.5573 14.5684 21.6301C14.6311 21.703 14.7056 21.7607 14.7877 21.8002C14.8697 21.8396 14.9577 21.8599 15.0465 21.8599L19.7731 21.875C19.9521 21.875 20.1238 21.7927 20.2504 21.6462C20.377 21.4996 20.4482 21.3009 20.4482 21.0937V13.085L12.6706 5.67495C12.5791 5.58965 12.4652 5.54313 12.3478 5.54313C12.2303 5.54313 12.1164 5.58965 12.025 5.67495ZM24.3131 10.7151L20.7857 7.34994V0.586003C20.7857 0.430585 20.7324 0.281533 20.6374 0.171636C20.5425 0.0617395 20.4137 0 20.2794 0H17.9165C17.7822 0 17.6535 0.0617395 17.5585 0.171636C17.4635 0.281533 17.4102 0.430585 17.4102 0.586003V4.13181L13.6326 0.534728C13.2701 0.189464 12.8152 0.000690187 12.3457 0.000690187C11.8762 0.000690187 11.4213 0.189464 11.0588 0.534728L0.378212 10.7151C0.326941 10.7641 0.284523 10.8244 0.25338 10.8924C0.222238 10.9604 0.202981 11.0349 0.196712 11.1115C0.190443 11.1882 0.197283 11.2655 0.216842 11.3391C0.2364 11.4126 0.268294 11.481 0.310702 11.5403L1.38665 13.0542C1.42894 13.1137 1.48096 13.163 1.53972 13.1992C1.59849 13.2354 1.66286 13.2579 1.72913 13.2653C1.7954 13.2727 1.86229 13.2649 1.92595 13.2423C1.98961 13.2197 2.04881 13.1829 2.10014 13.1338L12.025 3.67277C12.1164 3.58747 12.2303 3.54096 12.3478 3.54096C12.4652 3.54096 12.5791 3.58747 12.6706 3.67277L22.5958 13.1338C22.6471 13.1829 22.7062 13.2198 22.7697 13.2424C22.8333 13.2651 22.9001 13.273 22.9664 13.2657C23.0326 13.2585 23.0969 13.2362 23.1557 13.2001C23.2145 13.1641 23.2665 13.115 23.3089 13.0557L24.3848 11.5418C24.4272 11.4822 24.459 11.4134 24.4783 11.3395C24.4976 11.2656 24.5041 11.188 24.4975 11.1112C24.4908 11.0344 24.4711 10.9598 24.4395 10.8918C24.4078 10.8238 24.3649 10.7638 24.3131 10.7151Z" fill="#195CA3" />
</svg>